<svg xmlns="http://www.w3.org/2000/svg" class="rh-medal silver" viewBox="0 0 100 100" aria-hidden="true" focusable="false"><defs><linearGradient id="rh-m2r" x1="0" y1="0" x2="0" y2="1"><stop offset="0" stop-color="#F4F6F8"/><stop offset="1" stop-color="#7D8590"/></linearGradient><linearGradient id="rh-m2f" x1="0" y1="0" x2="1" y2="1"><stop offset="0" stop-color="#C9CFD6"/><stop offset="1" stop-color="#8A929C"/></linearGradient></defs><circle cx="50" cy="50" r="48" fill="url(#rh-m2r)"/><circle cx="50" cy="50" r="40" fill="#5E656E"/><circle cx="50" cy="51" r="38.5" fill="url(#rh-m2f)"/><path d="M18 70L38 38l9 13 11-19 24 38z" fill="#5E656E" opacity=".55"/><path d="M20 68l18-28 9 12 11-18 22 34z" fill="#E9EDF1"/><path d="M58 34l-6 10 6-3 5 4zM38 40l-5 8 5-2 4 3z" fill="#FFFFFF" opacity=".95"/><path d="M58 34l22 34H58l-4-10z" fill="#5E656E" opacity=".35"/><path d="M24 36a30 30 0 0 1 20-16" fill="none" stroke="#fff" stroke-width="2.2" stroke-linecap="round" opacity=".45"/></svg>
